{
    "asset" : {
        "generator" : "Khronos glTF Blender I/O v1.5.17",
        "version" : "2.0"
    },
    "scene" : 0,
    "scenes" : [
        {
            "name" : "Scene",
            "nodes" : [
                5
            ]
        }
    ],
    "nodes" : [
        {
            "name" : "BLeg1.l",
            "rotation" : [
                1.941868710275685e-08,
                2.9741304600030324e-15,
                0.44424787163734436,
                0.8959039449691772
            ],
            "scale" : [
                1.0000001192092896,
                1.0000001192092896,
                1
            ],
            "translation" : [
                0,
                1.1007601022720337,
                0
            ]
        },
        {
            "children" : [
                0
            ],
            "name" : "BLeg2.l",
            "rotation" : [
                -0.7071068286895752,
                0,
                0.7071068286895752,
                0
            ],
            "scale" : [
                0.9999999403953552,
                0.9999999403953552,
                0.9999999403953552
            ],
            "translation" : [
                0,
                2.088196039199829,
                0
            ]
        },
        {
            "name" : "BLeg1.r",
            "translation" : [
                -2.6645352591003757e-15,
                1.1007602214813232,
                -2.220446049250313e-16
            ]
        },
        {
            "children" : [
                2
            ],
            "name" : "BLeg2.r",
            "rotation" : [
                0.7071068286895752,
                0,
                0.7071068286895752,
                0
            ],
            "scale" : [
                1,
                0.9999999403953552,
                1
            ],
            "translation" : [
                -1.3869065046310425,
                2.039815664291382,
                -6.500346039217675e-09
            ]
        },
        {
            "mesh" : 0,
            "name" : "spine",
            "skin" : 0
        },
        {
            "children" : [
                4,
                1,
                3
            ],
            "name" : "\u9aa8\u67b6",
            "scale" : [
                0.34615767002105713,
                0.34615767002105713,
                0.34615767002105713
            ],
            "translation" : [
                0.23446175456047058,
                0.05582422763109207,
                0
            ]
        }
    ],
    "animations" : [
        {
            "channels" : [
                {
                    "sampler" : 0,
                    "target" : {
                        "node" : 1,
                        "path" : "translation"
                    }
                },
                {
                    "sampler" : 1,
                    "target" : {
                        "node" : 1,
                        "path" : "rotation"
                    }
                },
                {
                    "sampler" : 2,
                    "target" : {
                        "node" : 1,
                        "path" : "scale"
                    }
                },
                {
                    "sampler" : 3,
                    "target" : {
                        "node" : 0,
                        "path" : "translation"
                    }
                },
                {
                    "sampler" : 4,
                    "target" : {
                        "node" : 0,
                        "path" : "rotation"
                    }
                },
                {
                    "sampler" : 5,
                    "target" : {
                        "node" : 0,
                        "path" : "scale"
                    }
                },
                {
                    "sampler" : 6,
                    "target" : {
                        "node" : 3,
                        "path" : "translation"
                    }
                },
                {
                    "sampler" : 7,
                    "target" : {
                        "node" : 3,
                        "path" : "rotation"
                    }
                },
                {
                    "sampler" : 8,
                    "target" : {
                        "node" : 3,
                        "path" : "scale"
                    }
                },
                {
                    "sampler" : 9,
                    "target" : {
                        "node" : 2,
                        "path" : "translation"
                    }
                },
                {
                    "sampler" : 10,
                    "target" : {
                        "node" : 2,
                        "path" : "rotation"
                    }
                },
                {
                    "sampler" : 11,
                    "target" : {
                        "node" : 2,
                        "path" : "scale"
                    }
                }
            ],
            "name" : "Action",
            "samplers" : [
                {
                    "input" : 9,
                    "interpolation" : "LINEAR",
                    "output" : 10
                },
                {
                    "input" : 9,
                    "interpolation" : "LINEAR",
                    "output" : 11
                },
                {
                    "input" : 9,
                    "interpolation" : "LINEAR",
                    "output" : 12
                },
                {
                    "input" : 9,
                    "interpolation" : "LINEAR",
                    "output" : 13
                },
                {
                    "input" : 9,
                    "interpolation" : "LINEAR",
                    "output" : 14
                },
                {
                    "input" : 9,
                    "interpolation" : "LINEAR",
                    "output" : 15
                },
                {
                    "input" : 9,
                    "interpolation" : "LINEAR",
                    "output" : 16
                },
                {
                    "input" : 9,
                    "interpolation" : "LINEAR",
                    "output" : 17
                },
                {
                    "input" : 9,
                    "interpolation" : "LINEAR",
                    "output" : 18
                },
                {
                    "input" : 9,
                    "interpolation" : "LINEAR",
                    "output" : 19
                },
                {
                    "input" : 9,
                    "interpolation" : "LINEAR",
                    "output" : 20
                },
                {
                    "input" : 9,
                    "interpolation" : "LINEAR",
                    "output" : 21
                }
            ]
        },
        {
            "channels" : [
                {
                    "sampler" : 0,
                    "target" : {
                        "node" : 4,
                        "path" : "rotation"
                    }
                }
            ],
            "name" : "spineAction.001",
            "samplers" : [
                {
                    "input" : 9,
                    "interpolation" : "LINEAR",
                    "output" : 22
                }
            ]
        }
    ],
    "materials" : [
        {
            "doubleSided" : true,
            "name" : "Material",
            "pbrMetallicRoughness" : {
                "baseColorFactor" : [
                    0.7212428450584412,
                    0.37774237990379333,
                    0.8000000715255737,
                    1
                ],
                "metallicFactor" : 0,
                "roughnessFactor" : 0.4000000059604645
            }
        }
    ],
    "meshes" : [
        {
            "name" : "spine",
            "primitives" : [
                {
                    "attributes" : {
                        "POSITION" : 0,
                        "NORMAL" : 1,
                        "TEXCOORD_0" : 2,
                        "TEXCOORD_1" : 3,
                        "COLOR_0" : 4,
                        "JOINTS_0" : 5,
                        "WEIGHTS_0" : 6
                    },
                    "indices" : 7,
                    "material" : 0
                }
            ]
        }
    ],
    "skins" : [
        {
            "inverseBindMatrices" : 8,
            "joints" : [
                1,
                0,
                3,
                2
            ],
            "name" : "\u9aa8\u67b6"
        }
    ],
    "accessors" : [
        {
            "bufferView" : 0,
            "componentType" : 5126,
            "count" : 144,
            "max" : [
                1.695327639579773,
                2.671950340270996,
                0.4732263684272766
            ],
            "min" : [
                -1.6953275203704834,
                0.022043423727154732,
                -0.4732263684272766
            ],
            "type" : "VEC3"
        },
        {
            "bufferView" : 1,
            "componentType" : 5126,
            "count" : 144,
            "type" : "VEC3"
        },
        {
            "bufferView" : 2,
            "componentType" : 5126,
            "count" : 144,
            "type" : "VEC2"
        },
        {
            "bufferView" : 3,
            "componentType" : 5126,
            "count" : 144,
            "type" : "VEC2"
        },
        {
            "bufferView" : 4,
            "componentType" : 5123,
            "count" : 144,
            "normalized" : true,
            "type" : "VEC4"
        },
        {
            "bufferView" : 5,
            "componentType" : 5121,
            "count" : 144,
            "type" : "VEC4"
        },
        {
            "bufferView" : 6,
            "componentType" : 5126,
            "count" : 144,
            "type" : "VEC4"
        },
        {
            "bufferView" : 7,
            "componentType" : 5123,
            "count" : 216,
            "type" : "SCALAR"
        },
        {
            "bufferView" : 8,
            "componentType" : 5126,
            "count" : 4,
            "type" : "MAT4"
        },
        {
            "bufferView" : 9,
            "componentType" : 5126,
            "count" : 20,
            "max" : [
                0.8333333333333334
            ],
            "min" : [
                0.041666666666666664
            ],
            "type" : "SCALAR"
        },
        {
            "bufferView" : 10,
            "componentType" : 5126,
            "count" : 20,
            "type" : "VEC3"
        },
        {
            "bufferView" : 11,
            "componentType" : 5126,
            "count" : 20,
            "type" : "VEC4"
        },
        {
            "bufferView" : 12,
            "componentType" : 5126,
            "count" : 20,
            "type" : "VEC3"
        },
        {
            "bufferView" : 13,
            "componentType" : 5126,
            "count" : 20,
            "type" : "VEC3"
        },
        {
            "bufferView" : 14,
            "componentType" : 5126,
            "count" : 20,
            "type" : "VEC4"
        },
        {
            "bufferView" : 15,
            "componentType" : 5126,
            "count" : 20,
            "type" : "VEC3"
        },
        {
            "bufferView" : 16,
            "componentType" : 5126,
            "count" : 20,
            "type" : "VEC3"
        },
        {
            "bufferView" : 17,
            "componentType" : 5126,
            "count" : 20,
            "type" : "VEC4"
        },
        {
            "bufferView" : 18,
            "componentType" : 5126,
            "count" : 20,
            "type" : "VEC3"
        },
        {
            "bufferView" : 19,
            "componentType" : 5126,
            "count" : 20,
            "type" : "VEC3"
        },
        {
            "bufferView" : 20,
            "componentType" : 5126,
            "count" : 20,
            "type" : "VEC4"
        },
        {
            "bufferView" : 21,
            "componentType" : 5126,
            "count" : 20,
            "type" : "VEC3"
        },
        {
            "bufferView" : 22,
            "componentType" : 5126,
            "count" : 20,
            "type" : "VEC4"
        }
    ],
    "bufferViews" : [
        {
            "buffer" : 0,
            "byteLength" : 1728,
            "byteOffset" : 0
        },
        {
            "buffer" : 0,
            "byteLength" : 1728,
            "byteOffset" : 1728
        },
        {
            "buffer" : 0,
            "byteLength" : 1152,
            "byteOffset" : 3456
        },
        {
            "buffer" : 0,
            "byteLength" : 1152,
            "byteOffset" : 4608
        },
        {
            "buffer" : 0,
            "byteLength" : 1152,
            "byteOffset" : 5760
        },
        {
            "buffer" : 0,
            "byteLength" : 576,
            "byteOffset" : 6912
        },
        {
            "buffer" : 0,
            "byteLength" : 2304,
            "byteOffset" : 7488
        },
        {
            "buffer" : 0,
            "byteLength" : 432,
            "byteOffset" : 9792
        },
        {
            "buffer" : 0,
            "byteLength" : 256,
            "byteOffset" : 10224
        },
        {
            "buffer" : 0,
            "byteLength" : 80,
            "byteOffset" : 10480
        },
        {
            "buffer" : 0,
            "byteLength" : 240,
            "byteOffset" : 10560
        },
        {
            "buffer" : 0,
            "byteLength" : 320,
            "byteOffset" : 10800
        },
        {
            "buffer" : 0,
            "byteLength" : 240,
            "byteOffset" : 11120
        },
        {
            "buffer" : 0,
            "byteLength" : 240,
            "byteOffset" : 11360
        },
        {
            "buffer" : 0,
            "byteLength" : 320,
            "byteOffset" : 11600
        },
        {
            "buffer" : 0,
            "byteLength" : 240,
            "byteOffset" : 11920
        },
        {
            "buffer" : 0,
            "byteLength" : 240,
            "byteOffset" : 12160
        },
        {
            "buffer" : 0,
            "byteLength" : 320,
            "byteOffset" : 12400
        },
        {
            "buffer" : 0,
            "byteLength" : 240,
            "byteOffset" : 12720
        },
        {
            "buffer" : 0,
            "byteLength" : 240,
            "byteOffset" : 12960
        },
        {
            "buffer" : 0,
            "byteLength" : 320,
            "byteOffset" : 13200
        },
        {
            "buffer" : 0,
            "byteLength" : 240,
            "byteOffset" : 13520
        },
        {
            "buffer" : 0,
            "byteLength" : 320,
            "byteOffset" : 13760
        }
    ],
    "buffers" : [
        {
            "byteLength" : 14080,
            "uri" : "data:application/octet-stream;base64,"
        }
    ]
}
